<?xml version="1.0" standalone="yes"?>
<svg xmlns="http://www.w3.org/2000/svg" width="500" height="499">
<path style="fill:#ffffff; stroke:none;" d="M0 0L0 499L500 499L500 0L0 0z"/>
<path style="fill:#a0bac4; stroke:none;" d="M232 135L232 136L236 136L232 135z"/>
<path style="fill:#497dae; stroke:none;" d="M225 140L221 139L221 140L241 137L241 135C236.834 135.13 225.66 135.202 225 140z"/>
<path style="fill:#a0bac4; stroke:none;" d="M241 135L241 137L243 137L243 135L241 135M228.667 136.333L229.333 136.667L228.667 136.333M225 137L226 138L225 137M236 137L236 138L239 138L236 137M222.667 138.333L223.333 138.667L222.667 138.333z"/>
<path style="fill:#27d0b5; stroke:none;" d="M227 138L228 139L227 138z"/>
<path style="fill:#a0bac4; stroke:none;" d="M231.667 138.333L232.333 138.667L231.667 138.333M217 140L217 141L221 140L217 140z"/>
<path style="fill:#27d0b5; stroke:none;" d="M223.667 139.333L224.333 139.667L223.667 139.333z"/>
<path style="fill:#a0bac4; stroke:none;" d="M228.667 139.333L229.333 139.667L228.667 139.333z"/>
<path style="fill:#497dae; stroke:none;" d="M219 140L220 141L219 140z"/>
<path style="fill:#27d0b5; stroke:none;" d="M260 286L260 283C238.999 282.567 217.874 277.035 202.17 262.41C162.701 225.654 175.07 163.378 223 141C217.66 139.421 211.468 143.628 207 146.309C193.357 154.496 181.778 168.871 176.748 184C160.517 232.827 202.178 304.042 260 286z"/>
<path style="fill:#a0bac4; stroke:none;" d="M225 140L226 141L225 140M214.667 141.333L215.333 141.667L214.667 141.333z"/>
<path style="fill:#497dae; stroke:none;" d="M216 141L217 142L216 141M221 141L222 142L221 141z"/>
<path style="fill:#a0bac4; stroke:none;" d="M222.667 141.333L223.333 141.667L222.667 141.333M213 142L214 143L213 142z"/>
<path style="fill:#497dae; stroke:none;" d="M219 142L220 143L219 142z"/>
<path style="fill:#a0bac4; stroke:none;" d="M220.667 142.333L221.333 142.667L220.667 142.333M211 143L212 144L211 143M218 143L219 144L218 143M209.667 144.333L210.333 144.667L209.667 144.333M216 144L217 145L216 144M207.667 145.333L208.333 145.667L207.667 145.333M214.667 145.333L215.333 145.667L214.667 145.333M206 146L207 147L206 146z"/>
<path style="fill:#497dae; stroke:none;" d="M212 146L213 147L212 146z"/>
<path style="fill:#a0bac4; stroke:none;" d="M213 146L214 147L213 146M204 147L205 148L204 147M211 147L212 148L211 147M203 148L204 149L203 148M209.667 148.333L210.333 148.667L209.667 148.333M251 148L259 151L259 150C255.292 150 252.277 150.893 253 148L251 148z"/>
<path style="fill:#497dae; stroke:none;" d="M252 149L252 150L273 154L273 153L271 153L271 152L274 152C268.292 148.575 258.365 147.123 252 149z"/>
<path style="fill:#a0bac4; stroke:none;" d="M261.667 148.333L262.333 148.667L261.667 148.333M201.667 149.333L202.333 149.667L201.667 149.333M208 149L209 150L208 149M265 149L265 150L268 150L265 149M200 150L201 151L200 150M206.667 150.333L207.333 150.667L206.667 150.333M271.667 150.333L272.333 150.667L271.667 150.333M199 151L200 152L199 151M205 151L206 152L205 151M261 151L261 152L264 152L261 151z"/>
<path style="fill:#166ed8; stroke:none;" d="M269.667 151.333L270.333 151.667L269.667 151.333z"/>
<path style="fill:#a0bac4; stroke:none;" d="M274.667 151.333L275.333 151.667L274.667 151.333M296 151L297 152L296 151z"/>
<path style="fill:#497dae; stroke:none;" d="M297 151L303 155L303 158L304 159L309 161L297 151z"/>
<path style="fill:#a0bac4; stroke:none;" d="M298 151L299 152L298 151M198 152L199 153L198 152M204 152L205 153L204 152M266.667 152.333L267.333 152.667L266.667 152.333z"/>
<path style="fill:#166ed8; stroke:none;" d="M271 152L271 153C304.605 166.995 322.01 209.491 300.226 241C288.991 257.251 274.781 262.377 257 268L260 269L258 273C285.532 270.824 310.106 249.721 314.56 222C319.056 194.023 303.145 154.807 271 152z"/>
<path style="fill:#497dae; stroke:none;" d="M275 152L275 153L280 154L280 153L275 152z"/>
<path style="fill:#a0bac4; stroke:none;" d="M278 152L279 153L278 152M300 152L301 153L300 152M197 153L198 154L197 153M203 153L204 154L203 153M270 153L271 154L270 153M280 153L281 154L280 153M297 153L298 154L297 153M301 153L302 154L301 153M196 154L197 155L196 154M202 154L203 155L202 154M272.667 154.333L273.333 154.667L272.667 154.333z"/>
<path style="fill:#497dae; stroke:none;" d="M274 154L275 155L274 154M281 154L282 155L281 154z"/>
<path style="fill:#a0bac4; stroke:none;" d="M282 154L283 155L282 154M195 155L196 156L195 155M200 155L201 156L200 155M275 155L277 157L275 155z"/>
<path style="fill:#497dae; stroke:none;" d="M276 155L277 156L276 155M283 155L285 157L283 155z"/>
<path style="fill:#a0bac4; stroke:none;" d="M284 155L285 156L284 155z"/>
<path style="fill:#166ed8; stroke:none;" d="M301 155L304 157L301 155z"/>
<path style="fill:#a0bac4; stroke:none;" d="M304 155L305 156L304 155M194 156L195 157L194 156M199 156L200 157L199 156z"/>
<path style="fill:#497dae; stroke:none;" d="M277 156L277 157L282 159L282 158L277 156z"/>
<path style="fill:#a0bac4; stroke:none;" d="M285 156L286 157L285 156M301 156L302 157L301 156M193 157L194 158L193 157M198 157L199 158L198 157M278 157L279 158L278 157z"/>
<path style="fill:#497dae; stroke:none;" d="M286 157L288 159L286 157z"/>
<path style="fill:#a0bac4; stroke:none;" d="M287 157L288 158L287 157M302 157L303 158L302 157M192 158L193 159L192 158M280 158L281 159L280 158M288 158L289 159L288 158M303 158L304 159L303 158z"/>
<path style="fill:#166ed8; stroke:none;" d="M305 158C310.946 173.374 321.566 183.515 323.714 201C328.459 239.642 296.747 280.267 257 282L257 283L260 283L257 286L257 287C264.209 286.94 278.372 286.161 283 280C293.969 280.642 308.144 264.263 313.964 256C333.493 228.27 335.115 179.968 305 158z"/>
<path style="fill:#a0bac4; stroke:none;" d="M307 158L308 159L307 158M191 159L192 160L191 159M197 159L198 160L197 159M282 159L284 161L282 159z"/>
<path style="fill:#497dae; stroke:none;" d="M283 159L284 160L283 159M289 159L292 161L292 160L289 159z"/>
<path style="fill:#a0bac4; stroke:none;" d="M290 159L291 160L290 159M304 159L305 160L304 159M190 160L191 161L190 160M196 160L197 161L196 160z"/>
<path style="fill:#497dae; stroke:none;" d="M284 160L285 161L284 160M305 160L306 161L305 160z"/>
<path style="fill:#a0bac4; stroke:none;" d="M189 161L190 162L189 161M195 161L196 162L195 161M285 161L287 163L285 161z"/>
<path style="fill:#497dae; stroke:none;" d="M286 161L287 162L286 161M292 161L297 166L292 161z"/>
<path style="fill:#a0bac4; stroke:none;" d="M293 161L294 162L293 161z"/>
<path style="fill:#497dae; stroke:none;" d="M306 161L307 162L306 161z"/>
<path style="fill:#a0bac4; stroke:none;" d="M309 161L310 162L309 161M188 162L189 163L188 162M194 162L195 163L194 162z"/>
<path style="fill:#497dae; stroke:none;" d="M287 162L288 163L287 162z"/>
<path style="fill:#a0bac4; stroke:none;" d="M294 162L295 163L294 162M310 162L312 164L310 162M187.333 163.667L187.667 164.333L187.333 163.667M193 163L194 164L193 163M248 163L248 164L252 164L248 163z"/>
<path style="fill:#497dae; stroke:none;" d="M236 168L236 169C244.588 167.228 254.415 165.194 263 168L263 167L260 166L260 165L265 165C255.912 161.08 244.574 164.008 236 168z"/>
<path style="fill:#a0bac4; stroke:none;" d="M258 163L258 164L263 164L258 163z"/>
<path style="fill:#497dae; stroke:none;" d="M288 163L289 164L288 163z"/>
<path style="fill:#a0bac4; stroke:none;" d="M295 163L296 164L295 163M307 163L308 164L307 163z"/>
<path style="fill:#497dae; stroke:none;" d="M310 163L311 164L310 163z"/>
<path style="fill:#a0bac4; stroke:none;" d="M243 164L243 165L246 165L243 164M265.667 164.333L266.333 164.667L265.667 164.333z"/>
<path style="fill:#497dae; stroke:none;" d="M289 164L290 165L289 164z"/>
<path style="fill:#a0bac4; stroke:none;" d="M296 164L297 165L296 164M308 164L309 165L308 164M312 164L315 167L312 164M186 165L187 166L186 165M192 165L193 166L192 165M240.667 165.333L241.333 165.667L240.667 165.333z"/>
<path style="fill:#27d0b5; stroke:none;" d="M246.667 165.333L247.333 165.667L246.667 165.333z"/>
<path style="fill:#166ed8; stroke:none;" d="M260 165L260 166C273.124 172.234 284.626 178.76 290.394 193C301.005 219.193 280.818 249.709 253 252L253 254L259 254L258 256C277.007 254.448 293.557 240.547 298.391 222C305.016 196.585 288.094 165.583 260 165z"/>
<path style="fill:#497dae; stroke:none;" d="M266.667 165.333L267.333 165.667L266.667 165.333z"/>
<path style="fill:#a0bac4; stroke:none;" d="M268 165L268 166L273 167L273 166L268 165z"/>
<path style="fill:#497dae; stroke:none;" d="M290 165L291 166L290 165z"/>
<path style="fill:#a0bac4; stroke:none;" d="M297 165L298 166L297 165M309 165L310 166L309 165z"/>
<path style="fill:#497dae; stroke:none;" d="M312 165L313 166L312 165z"/>
<path style="fill:#a0bac4; stroke:none;" d="M185 166L186 167L185 166M191 166L192 167L191 166M207 168L210 168L209 166L207 168M238.667 166.333L239.333 166.667L238.667 166.333M250 166L251 167L250 166z"/>
<path style="fill:#166ed8; stroke:none;" d="M259 166L260 167L259 166z"/>
<path style="fill:#497dae; stroke:none;" d="M270 166L271 167L270 166M291 166L292 167L291 166z"/>
<path style="fill:#a0bac4; stroke:none;" d="M298 166L303 171L298 166z"/>
<path style="fill:#497dae; stroke:none;" d="M310 166L311 167L310 166M313 166L314 167L313 166z"/>
<path style="fill:#a0bac4; stroke:none;" d="M236 167L237 168L236 167M242 167L242 168L245 168L242 167M258 167L258 168L262 168L258 167z"/>
<path style="fill:#497dae; stroke:none;" d="M272.667 167.333L273.333 167.667L272.667 167.333z"/>
<path style="fill:#a0bac4; stroke:none;" d="M274 167L275 168L274 167M292 167L293 168L292 167z"/>
<path style="fill:#497dae; stroke:none;" d="M298 167L299 168L298 167z"/>
<path style="fill:#a0bac4; stroke:none;" d="M310 167L311 168L310 167z"/>
<path style="fill:#497dae; stroke:none;" d="M314 167L315 168L314 167z"/>
<path style="fill:#a0bac4; stroke:none;" d="M184 168L185 169L184 168M190 168L191 169L190 168M205 168L206 169L205 168z"/>
<path style="fill:#497dae; stroke:none;" d="M204 173L209 168L204 173z"/>
<path style="fill:#a0bac4; stroke:none;" d="M235 168L235 170L237 170L235 168M238 168L238 169L241 169L238 168M262.667 168.333L263.333 168.667L262.667 168.333z"/>
<path style="fill:#497dae; stroke:none;" d="M264.667 168.333L265.333 168.667L264.667 168.333M275 168L276 169L275 168z"/>
<path style="fill:#a0bac4; stroke:none;" d="M276 168L277 169L276 168M293 168L294 169L293 168z"/>
<path style="fill:#497dae; stroke:none;" d="M299 168L300 169L299 168M311 168L312 169L311 168z"/>
<path style="fill:#a0bac4; stroke:none;" d="M315 168L317 170L315 168M183 169L184 170L183 169M189 169L190 170L189 169M208 169L209 170L208 169M265.667 169.333L266.333 169.667L265.667 169.333z"/>
<path style="fill:#497dae; stroke:none;" d="M267 169L268 170L267 169M277 169L279 171L277 169z"/>
<path style="fill:#a0bac4; stroke:none;" d="M278 169L279 170L278 169z"/>
<path style="fill:#497dae; stroke:none;" d="M294 169L295 170L294 169M300 169L301 170L300 169M312 169L313 170L312 169M315 169L316 170L315 169z"/>
<path style="fill:#a0bac4; stroke:none;" d="M188.333 170.667L188.667 171.333L188.333 170.667M204 170L205 171L204 170M207 170L208 171L207 170M268 170L269 171L268 170z"/>
<path style="fill:#497dae; stroke:none;" d="M269 170L269 171L272 172L269 170z"/>
<path style="fill:#a0bac4; stroke:none;" d="M279 170L280 171L279 170z"/>
<path style="fill:#497dae; stroke:none;" d="M295 170L296 171L295 170M301 170L302 171L301 170z"/>
<path style="fill:#a0bac4; stroke:none;" d="M312 170L313 171L312 170z"/>
<path style="fill:#497dae; stroke:none;" d="M316 170L317 171L316 170z"/>
<path style="fill:#a0bac4; stroke:none;" d="M182 171L183 172L182 171M203 171L193 186L194 186L203 171M206 171L207 172L206 171M270 171L271 172L270 171z"/>
<path style="fill:#497dae; stroke:none;" d="M280 171L283 174L280 171z"/>
<path style="fill:#a0bac4; stroke:none;" d="M281 171L282 172L281 171z"/>
<path style="fill:#497dae; stroke:none;" d="M296 171L298 173L296 171M302 171L303 172L302 171M313 171L315 173L313 171z"/>
<path style="fill:#a0bac4; stroke:none;" d="M317 171L319 173L317 171M187.333 172.667L187.667 173.333L187.333 172.667z"/>
<path style="fill:#27d0b5; stroke:none;" d="M203 172C179.32 201.859 185.153 245.478 219 265.546C232.052 273.285 244.709 272.489 259 274L260 269C251.431 267.408 242.248 267.84 234 264.91C211.438 256.898 190.991 234.3 192.104 209C192.444 201.267 193.856 193.155 196.876 186C198.707 181.663 203.405 176.699 203 172z"/>
<path style="fill:#a0bac4; stroke:none;" d="M205 172L206 173L205 172M272 172L274 174L272 172z"/>
<path style="fill:#497dae; stroke:none;" d="M273 172L274 173L273 172z"/>
<path style="fill:#a0bac4; stroke:none;" d="M282 172L283 173L282 172M296 172L297 173L296 172M303 172L304 173L303 172M313 172L314 173L313 172z"/>
<path style="fill:#497dae; stroke:none;" d="M317 172L318 173L317 172z"/>
<path style="fill:#a0bac4; stroke:none;" d="M181 173L182 174L181 173M204 173L205 174L204 173z"/>
<path style="fill:#497dae; stroke:none;" d="M274 173L275 174L274 173z"/>
<path style="fill:#a0bac4; stroke:none;" d="M283 173L284 174L283 173M297 173L298 174L297 173M304 173L306 175L304 173M314 173L315 174L314 173z"/>
<path style="fill:#497dae; stroke:none;" d="M318 173L319 174L318 173z"/>
<path style="fill:#a0bac4; stroke:none;" d="M180.333 174.667L180.667 175.333L180.333 174.667M186.333 174.667L186.667 175.333L186.333 174.667M203 174L204 175L203 174M275 174L278 177L275 174z"/>
<path style="fill:#497dae; stroke:none;" d="M276 174L277 175L276 174M284 174L285 175L284 174M298 174L299 175L298 174M304 174L305 175L304 174M315 174L316 175L315 174z"/>
<path style="fill:#a0bac4; stroke:none;" d="M319 174L320 175L319 174z"/>
<path style="fill:#497dae; stroke:none;" d="M200 175L201 176L200 175M202 175L203 176L202 175M277 175L278 176L277 175M285 175L286 176L285 175M299 175L301 177L299 175M305 175L306 176L305 175z"/>
<path style="fill:#a0bac4; stroke:none;" d="M315 175L316 176L315 175z"/>
<path style="fill:#497dae; stroke:none;" d="M319 175L320 176L319 175z"/>
<path style="fill:#a0bac4; stroke:none;" d="M179.333 176.667L179.667 177.333L179.333 176.667M185.333 176.667L185.667 177.333L185.333 176.667M202 176L203 177L202 176z"/>
<path style="fill:#497dae; stroke:none;" d="M278 176L279 177L278 176M286 176L287 177L286 176z"/>
<path style="fill:#a0bac4; stroke:none;" d="M299 176L300 177L299 176M306 176L308 178L306 176z"/>
<path style="fill:#497dae; stroke:none;" d="M316 176L317 177L316 176z"/>
<path style="fill:#a0bac4; stroke:none;" d="M320 176L321 177L320 176M201 177L202 178L201 177z"/>
<path style="fill:#497dae; stroke:none;" d="M279.667 177.333L280.333 177.667L279.667 177.333M287 177L288 178L287 177z"/>
<path style="fill:#a0bac4; stroke:none;" d="M300 177L301 178L300 177z"/>
<path style="fill:#497dae; stroke:none;" d="M306 177L307 178L306 177z"/>
<path style="fill:#a0bac4; stroke:none;" d="M316 177L317 178L316 177z"/>
<path style="fill:#497dae; stroke:none;" d="M320 177L321 178L320 177z"/>
<path style="fill:#a0bac4; stroke:none;" d="M178.333 178.667L178.667 179.333L178.333 178.667M184.333 178.667L184.667 179.333L184.333 178.667M200.333 178.667L200.667 179.333L200.333 178.667M280 178L281 179L280 178M288 178L292 182L288 178z"/>
<path style="fill:#497dae; stroke:none;" d="M301 178L302 179L301 178M307 178L308 179L307 178M317 178L318 179L317 178z"/>
<path style="fill:#a0bac4; stroke:none;" d="M321 178L322 179L321 178M281 179L282 180L281 179z"/>
<path style="fill:#497dae; stroke:none;" d="M288 179L289 180L288 179z"/>
<path style="fill:#a0bac4; stroke:none;" d="M301 179L302 180L301 179M308 179L309 180L308 179M317.333 179.667L317.667 180.333L317.333 179.667z"/>
<path style="fill:#497dae; stroke:none;" d="M321.333 179.667L321.667 180.333L321.333 179.667z"/>
<path style="fill:#a0bac4; stroke:none;" d="M177.333 180.667L177.667 181.333L177.333 180.667M183 180L183 183L184 183L183 180M199.333 180.667L199.667 181.333L199.333 180.667z"/>
<path style="fill:#497dae; stroke:none;" d="M282 180L283 181L282 180M289 180L290 181L289 180M302 180L303 183L304 183L302 180M308 180L309 181L308 180z"/>
<path style="fill:#a0bac4; stroke:none;" d="M322.333 180.667L322.667 181.333L322.333 180.667z"/>
<path style="fill:#497dae; stroke:none;" d="M283 181L284 182L283 181M290 181L291 182L290 181z"/>
<path style="fill:#a0bac4; stroke:none;" d="M302 181L303 182L302 181M309 181L310 182L309 181z"/>
<path style="fill:#497dae; stroke:none;" d="M318 181L319 182L318 181z"/>
<path style="fill:#a0bac4; stroke:none;" d="M198.333 182.667L198.667 183.333L198.333 182.667z"/>
<path style="fill:#497dae; stroke:none;" d="M284 182L286 186L287 186L284 182M291 182L292 183L291 182M309 182L310 183L309 182z"/>
<path style="fill:#a0bac4; stroke:none;" d="M318 182L319 183L318 182z"/>
<path style="fill:#497dae; stroke:none;" d="M322 182L323 183L322 182z"/>
<path style="fill:#a0bac4; stroke:none;" d="M176.333 183.667L176.667 184.333L176.333 183.667M182.333 183.667L182.667 184.333L182.333 183.667M284 183L285 184L284 183M292 183L294 185L292 183M303 183L304 184L303 183M310 183L311 184L310 183z"/>
<path style="fill:#497dae; stroke:none;" d="M319 183L320 184L319 183z"/>
<path style="fill:#a0bac4; stroke:none;" d="M323 183L324 184L323 183M197.333 184.667L197.667 185.333L197.333 184.667z"/>
<path style="fill:#497dae; stroke:none;" d="M292 184L293 185L292 184M304 184L305 185L304 184M310.333 184.667L310.667 185.333L310.333 184.667z"/>
<path style="fill:#a0bac4; stroke:none;" d="M319.333 184.667L319.667 185.333L319.333 184.667z"/>
<path style="fill:#497dae; stroke:none;" d="M323 184L324 185L323 184z"/>
<path style="fill:#a0bac4; stroke:none;" d="M181 185L181 188L182 188L181 185M285 185L286 186L285 185z"/>
<path style="fill:#497dae; stroke:none;" d="M293 185L294 186L293 185z"/>
<path style="fill:#a0bac4; stroke:none;" d="M304 185L305 186L304 185M311 185L312 189L313 189L311 185M324 185L325 186L324 185M175 186L175 189L176 189L175 186z"/>
<path style="fill:#497dae; stroke:none;" d="M193 186L194 187L193 186z"/>
<path style="fill:#a0bac4; stroke:none;" d="M196.333 186.667L196.667 187.333L196.333 186.667M286 186L287 187L286 186M294 186L295 187L294 186z"/>
<path style="fill:#497dae; stroke:none;" d="M305 186L306 187L305 186M320 186L321 187L320 186M324.333 186.667L324.667 187.333L324.333 186.667z"/>
<path style="fill:#a0bac4; stroke:none;" d="M192.333 187.667L192.667 188.333L192.333 187.667z"/>
<path style="fill:#497dae; stroke:none;" d="M287 187L288 188L287 187M294 187L295 188L294 187z"/>
<path style="fill:#a0bac4; stroke:none;" d="M305.333 187.667L305.667 188.333L305.333 187.667z"/>
<path style="fill:#497dae; stroke:none;" d="M311 187L312 188L311 187z"/>
<path style="fill:#a0bac4; stroke:none;" d="M320.333 187.667L320.667 188.333L320.333 187.667M325.333 187.667L325.667 188.333L325.333 187.667M287 188L288 189L287 188M295 188L296 189L295 188M191.333 189.667L191.667 190.333L191.333 189.667M195.333 189.667L195.667 190.333L195.333 189.667z"/>
<path style="fill:#497dae; stroke:none;" d="M288 189L290 194L291 194L288 189M295 189L296 190L295 189M306 189L307 190L306 189M312.333 189.667L312.667 190.333L312.333 189.667M321 189L322 190L321 189M325.333 189.667L325.667 190.333L325.333 189.667z"/>
<path style="fill:#a0bac4; stroke:none;" d="M174.333 190.667L174.667 191.333L174.333 190.667M180.333 190.667L180.667 191.333L180.333 190.667M288 190L289 191L288 190M296 190L297 191L296 190M306 190L306 193L307 193L306 190M313.333 190.667L313.667 191.333L313.333 190.667M321 190L321 193L322 193L321 190z"/>
<path style="fill:#497dae; stroke:none;" d="M296 191L297 195L298 195L296 191z"/>
<path style="fill:#a0bac4; stroke:none;" d="M326 191L327 192L326 191M179 192L179 197L180 197L179 192M190 192L190 195L191 195L190 192M210 192L208 198L209 198L209 196L210 196L210 199L211 199L212 192L210 192M289 192L290 193L289 192M297 192L298 193L297 192z"/>
<path style="fill:#497dae; stroke:none;" d="M307.333 192.667L307.667 193.333L307.333 192.667M313.333 192.667L313.667 193.333L313.333 192.667M326 192L326 195L327 195L326 192z"/>
<path style="fill:#a0bac4; stroke:none;" d="M194.333 193.667L194.667 194.333L194.333 193.667z"/>
<path style="fill:#497dae; stroke:none;" d="M322 193L322 196L323 196L322 193z"/>
<path style="fill:#a0bac4; stroke:none;" d="M290.333 194.667L290.667 195.333L290.333 194.667M298.333 194.667L298.667 195.333L298.333 194.667M307 194L308 205L309 205L307 194M314 194L314 197L315 197L314 194M173 195L173 198L174 198L173 195M327 195L327 198L328 198L327 195M189 196L189 199L190 199L189 196M193 196L193 201L194 201L193 196z"/>
<path style="fill:#497dae; stroke:none;" d="M209 196L210 197L209 196M291.333 196.667L291.667 197.333L291.333 196.667M298.333 196.667L298.667 197.333L298.333 196.667M308 196L309 197L308 196z"/>
<path style="fill:#a0bac4; stroke:none;" d="M322 196L322 200L323 200L322 196z"/>
<path style="fill:#27d0b5; stroke:none;" d="M209 197C206.669 207.167 204.956 215.661 208.042 226C213.618 244.681 238.911 264.668 259 255L259 254L253 254L255 252L255 251C234.224 250.986 214.95 239.077 209.899 218C208.261 211.165 210.96 203.372 209 197z"/>
<path style="fill:#a0bac4; stroke:none;" d="M299 197L299 200L300 200L299 197z"/>
<path style="fill:#497dae; stroke:none;" d="M314.333 197.667L314.667 198.333L314.333 197.667M208 198L209 199L208 198z"/>
<path style="fill:#a0bac4; stroke:none;" d="M291.333 198.667L291.667 199.333L291.333 198.667M315 198L315 201L316 201L315 198z"/>
<path style="fill:#497dae; stroke:none;" d="M327.333 198.667L327.667 199.333L327.333 198.667z"/>
<path style="fill:#a0bac4; stroke:none;" d="M207 199L207 201L209 199L207 199z"/>
<path style="fill:#497dae; stroke:none;" d="M292 199L292 203L293 203L292 199M323 199L323 207L324 207L323 199z"/>
<path style="fill:#a0bac4; stroke:none;" d="M172 200L172 205L173 205L172 200M188 200L188 205L189 205L188 200M209 200L209 217L210 217L209 200z"/>
<path style="fill:#497dae; stroke:none;" d="M299 200L299 204L300 204L299 200z"/>
<path style="fill:#a0bac4; stroke:none;" d="M328 200L328 204L329 204L328 200M178 201L178 216L179 216L178 201z"/>
<path style="fill:#497dae; stroke:none;" d="M207.333 201.667L207.667 202.333L207.333 201.667M315 201L315 220L316 220L315 201z"/>
<path style="fill:#a0bac4; stroke:none;" d="M206 202L206 207L207 207L206 202M292 203L292 213L293 213L292 203M300 203L300 215L301 215L300 203z"/>
<path style="fill:#497dae; stroke:none;" d="M328 204L328 222L329 222L328 204z"/>
<path style="fill:#a0bac4; stroke:none;" d="M192 205L192 215L193 215L192 205z"/>
<path style="fill:#497dae; stroke:none;" d="M309 205L309 216L310 216L309 205z"/>
<path style="fill:#a0bac4; stroke:none;" d="M316 205L316 216L317 216L316 205M205 207L205 217L206 217L205 207M323 207L323 213L324 213L323 207M187 209L187 214L188 214L187 209z"/>
<path style="fill:#497dae; stroke:none;" d="M292 213L292 217L293 217L292 213M323 213L323 220L324 220L323 213M299 214L299 220L300 220L299 214z"/>
<path style="fill:#a0bac4; stroke:none;" d="M308 215L308 220L309 220L308 215M291 216L291 220L292 220L291 216M172 217L172 223L173 223L172 217M193 217L193 222L194 222L193 217M322 217L322 221L323 221L322 217M188 218L188 224L189 224L188 218M206 218L206 224L207 224L206 218M210.333 219.667L210.667 220.333L210.333 219.667M179 220L179 224L180 224L179 220z"/>
<path style="fill:#497dae; stroke:none;" d="M291 220L292 221L291 220z"/>
<path style="fill:#a0bac4; stroke:none;" d="M299.333 220.667L299.667 221.333L299.333 220.667z"/>
<path style="fill:#497dae; stroke:none;" d="M308 220L307 225L308 225L308 220z"/>
<path style="fill:#a0bac4; stroke:none;" d="M315 220L315 223L316 223L315 220M290.333 221.667L290.667 222.333L290.333 221.667M307.333 221.667L307.667 222.333L307.333 221.667z"/>
<path style="fill:#497dae; stroke:none;" d="M322 221L322 224L323 224L322 221z"/>
<path style="fill:#a0bac4; stroke:none;" d="M194 222L194 225L195 225L194 222M211.333 222.667L211.667 223.333L211.333 222.667z"/>
<path style="fill:#497dae; stroke:none;" d="M298 222L299 223L298 222M314 222L314 225L315 225L314 222z"/>
<path style="fill:#a0bac4; stroke:none;" d="M328 222L328 225L329 225L328 222z"/>
<path style="fill:#497dae; stroke:none;" d="M290.333 223.667L290.667 224.333L290.333 223.667z"/>
<path style="fill:#a0bac4; stroke:none;" d="M298.333 223.667L298.667 224.333L298.333 223.667M321 223L321 226L322 226L321 223M173 224L173 227L174 227L173 224M189 224L189 228L190 228L189 224M207.333 224.667L207.667 225.333L207.333 224.667M289 224L287 229L288 229L289 224z"/>
<path style="fill:#497dae; stroke:none;" d="M297.333 224.667L297.667 225.333L297.333 224.667M327 224L327 227L328 227L327 224z"/>
<path style="fill:#a0bac4; stroke:none;" d="M180.333 225.667L180.667 226.333L180.333 225.667M195 225L195 228L196 228L195 225M212.333 225.667L212.667 226.333L212.333 225.667M306.333 225.667L306.667 226.333L306.333 225.667M314.333 225.667L314.667 226.333L314.333 225.667z"/>
<path style="fill:#497dae; stroke:none;" d="M289 226L290 227L289 226z"/>
<path style="fill:#a0bac4; stroke:none;" d="M297.333 226.667L297.667 227.333L297.333 226.667z"/>
<path style="fill:#497dae; stroke:none;" d="M321 226L321 230L322 230L321 226z"/>
<path style="fill:#a0bac4; stroke:none;" d="M208.333 227.667L208.667 228.333L208.333 227.667M213 227L214 228L213 227z"/>
<path style="fill:#497dae; stroke:none;" d="M296 227L295 231L296 231L296 227M306.333 227.667L306.667 228.333L306.333 227.667M313 227L312 231L313 231L313 227z"/>
<path style="fill:#a0bac4; stroke:none;" d="M327 227L327 230L328 230L327 227M196 228L196 231L197 231L196 228z"/>
<path style="fill:#497dae; stroke:none;" d="M288 228L289 229L288 228z"/>
<path style="fill:#a0bac4; stroke:none;" d="M305.333 228.667L305.667 229.333L305.333 228.667M320 228L319 233L320 233L320 228M174 229L174 232L175 232L174 229M181 229L181 232L182 232L181 229M190.333 229.667L190.667 230.333L190.333 229.667M214.333 229.667L214.667 230.333L214.333 229.667z"/>
<path style="fill:#497dae; stroke:none;" d="M287 229L286 232L287 229z"/>
<path style="fill:#a0bac4; stroke:none;" d="M296 229L297 230L296 229M313 229L314 230L313 229z"/>
<path style="fill:#497dae; stroke:none;" d="M326.333 229.667L326.667 230.333L326.333 229.667z"/>
<path style="fill:#a0bac4; stroke:none;" d="M209 230L210 231L209 230M286 230L287 231L286 230z"/>
<path style="fill:#497dae; stroke:none;" d="M305 230L306 231L305 230z"/>
<path style="fill:#a0bac4; stroke:none;" d="M197.333 231.667L197.667 232.333L197.333 231.667M215 231L216 232L215 231M295 231L296 232L295 231M304 231L305 232L304 231M312.333 231.667L312.667 232.333L312.333 231.667z"/>
<path style="fill:#497dae; stroke:none;" d="M320 231L321 232L320 231z"/>
<path style="fill:#a0bac4; stroke:none;" d="M326.333 231.667L326.667 232.333L326.333 231.667M182.333 232.667L182.667 233.333L182.333 232.667M191.333 232.667L191.667 233.333L191.333 232.667M210 232L211 233L210 232M216 232L217 233L216 232M285 232L283 235L285 232z"/>
<path style="fill:#497dae; stroke:none;" d="M294 232L295 233L294 232M304 232L303 236L304 236L304 232M311.333 232.667L311.667 233.333L311.333 232.667M325.333 232.667L325.667 233.333L325.333 232.667z"/>
<path style="fill:#a0bac4; stroke:none;" d="M175.333 233.667L175.667 234.333L175.333 233.667z"/>
<path style="fill:#497dae; stroke:none;" d="M285 233L286 234L285 233z"/>
<path style="fill:#a0bac4; stroke:none;" d="M294 233L295 234L294 233M303 233L304 234L303 233z"/>
<path style="fill:#497dae; stroke:none;" d="M319.333 233.667L319.667 234.333L319.333 233.667z"/>
<path style="fill:#a0bac4; stroke:none;" d="M192.333 234.667L192.667 235.333L192.333 234.667M198 234L199 235L198 234M211 234L212 235L211 234M217 234L218 235L217 234z"/>
<path style="fill:#497dae; stroke:none;" d="M284 234L285 235L284 234z"/>
<path style="fill:#a0bac4; stroke:none;" d="M293 234L292 237L293 234M311 234L310 238L311 238L311 234M318.333 234.667L318.667 235.333L318.333 234.667M325.333 234.667L325.667 235.333L325.333 234.667M183.333 235.667L183.667 236.333L183.333 235.667M199.333 235.667L199.667 236.333L199.333 235.667M212.333 235.667L212.667 236.333L212.333 235.667M218 235L219 236L218 235z"/>
<path style="fill:#497dae; stroke:none;" d="M283 235L284 236L283 235M292 235L293 236L292 235z"/>
<path style="fill:#a0bac4; stroke:none;" d="M302 235L301 238L302 235z"/>
<path style="fill:#497dae; stroke:none;" d="M310 235L311 236L310 235M324.333 235.667L324.667 236.333L324.333 235.667z"/>
<path style="fill:#a0bac4; stroke:none;" d="M176.333 236.667L176.667 237.333L176.333 236.667M219 236L220 237L219 236M282 236L283 237L282 236z"/>
<path style="fill:#497dae; stroke:none;" d="M291 236L281 248C284.799 245.324 291.105 240.988 291 236M318 236L316 241L317 241L318 236z"/>
<path style="fill:#a0bac4; stroke:none;" d="M184.333 237.667L184.667 238.333L184.333 237.667M193.333 237.667L193.667 238.333L193.333 237.667M200 237L201 238L200 237M213 237L214 238L213 237M220 237L221 238L220 237M281 237L282 238L281 237z"/>
<path style="fill:#497dae; stroke:none;" d="M302 237L303 238L302 237z"/>
<path style="fill:#a0bac4; stroke:none;" d="M317 237L318 238L317 237M324.333 237.667L324.667 238.333L324.333 237.667M177.333 238.667L177.667 239.333L177.333 238.667M221 238L222 239L221 238M280 238L281 239L280 238M291 238L292 239L291 238z"/>
<path style="fill:#497dae; stroke:none;" d="M301 238L300 241L301 238M309 238L307 242L308 242L309 238M323 238L322 242L323 242L323 238z"/>
<path style="fill:#a0bac4; stroke:none;" d="M185.333 239.667L185.667 240.333L185.333 239.667M194.333 239.667L194.667 240.333L194.333 239.667M201 239L202 240L201 239M214 239L215 240L214 239M222 239L223 240L222 239z"/>
<path style="fill:#497dae; stroke:none;" d="M279 239L280 240L279 239z"/>
<path style="fill:#a0bac4; stroke:none;" d="M290 239L291 240L290 239M300 239L301 240L300 239M309 239L310 240L309 239M316 239L317 240L316 239M178.333 240.667L178.667 241.333L178.333 240.667M215 240L216 241L215 240M223 240L224 241L223 240z"/>
<path style="fill:#497dae; stroke:none;" d="M278 240L279 241L278 240z"/>
<path style="fill:#a0bac4; stroke:none;" d="M289 240L290 241L289 240M299 240L296 245L299 240M323 240L324 241L323 240M186.333 241.667L186.667 242.333L186.333 241.667M195 241L196 242L195 241M202 241L203 242L202 241M216 241L217 242L216 241M224 241L225 242L224 241M276 241L272 244L272 245L276 241z"/>
<path style="fill:#497dae; stroke:none;" d="M277 241L278 242L277 241z"/>
<path style="fill:#a0bac4; stroke:none;" d="M288 241L289 242L288 241M308 241L309 242L308 241M315 241L316 242L315 241M196.333 242.667L196.667 243.333L196.333 242.667M203 242L204 243L203 242M217 242L218 243L217 242M226 242L227 243L226 242z"/>
<path style="fill:#497dae; stroke:none;" d="M276 242L277 243L276 242z"/>
<path style="fill:#a0bac4; stroke:none;" d="M287 242L288 243L287 242z"/>
<path style="fill:#497dae; stroke:none;" d="M299 242L300 243L299 242z"/>
<path style="fill:#a0bac4; stroke:none;" d="M307 242L308 243L307 242z"/>
<path style="fill:#497dae; stroke:none;" d="M315 242L316 243L315 242z"/>
<path style="fill:#a0bac4; stroke:none;" d="M322 242L320 247L321 247L322 242M179.333 243.667L179.667 244.333L179.333 243.667M187 243L188 244L187 243M204 243L205 244L204 243M218 243L219 244L218 243M227 243L228 244L227 243z"/>
<path style="fill:#497dae; stroke:none;" d="M275 243L276 244L275 243z"/>
<path style="fill:#a0bac4; stroke:none;" d="M286 243L287 244L286 243z"/>
<path style="fill:#497dae; stroke:none;" d="M298 243L299 244L298 243M306 243L305 245L306 243z"/>
<path style="fill:#a0bac4; stroke:none;" d="M314 243L315 244L314 243z"/>
<path style="fill:#497dae; stroke:none;" d="M321 243L322 244L321 243z"/>
<path style="fill:#a0bac4; stroke:none;" d="M197.333 244.667L197.667 245.333L197.333 244.667M205.333 244.667L205.667 245.333L205.333 244.667M219 244L220 245L219 244M229 244L230 245L229 244z"/>
<path style="fill:#497dae; stroke:none;" d="M273 244L274 245L273 244z"/>
<path style="fill:#a0bac4; stroke:none;" d="M285 244L286 245L285 244z"/>
<path style="fill:#497dae; stroke:none;" d="M297 244L298 245L297 244z"/>
<path style="fill:#a0bac4; stroke:none;" d="M306 244L307 245L306 244z"/>
<path style="fill:#497dae; stroke:none;" d="M314 244L315 245L314 244z"/>
<path style="fill:#a0bac4; stroke:none;" d="M180.333 245.667L180.667 246.333L180.333 245.667M188 245L189 246L188 245M220 245L221 246L220 245M231 245L232 246L231 245M270 245L271 246L270 245z"/>
<path style="fill:#497dae; stroke:none;" d="M271 245L272 246L271 245z"/>
<path style="fill:#a0bac4; stroke:none;" d="M284 245L285 246L284 245z"/>
<path style="fill:#497dae; stroke:none;" d="M296 245L297 246L296 245z"/>
<path style="fill:#a0bac4; stroke:none;" d="M305 245L306 246L305 245M313 245L312 248L313 248L313 245z"/>
<path style="fill:#497dae; stroke:none;" d="M320 245L321 246L320 245z"/>
<path style="fill:#a0bac4; stroke:none;" d="M189.333 246.667L189.667 247.333L189.333 246.667M198 246L199 247L198 246M206 246L207 247L206 246M221 246L222 247L221 246M232.667 246.333L233.333 246.667L232.667 246.333M268 246L269 247L268 246z"/>
<path style="fill:#497dae; stroke:none;" d="M269.667 246.333L270.333 246.667L269.667 246.333z"/>
<path style="fill:#a0bac4; stroke:none;" d="M283 246L284 247L283 246M295 246L288 254L295 246z"/>
<path style="fill:#497dae; stroke:none;" d="M304 246L305 247L304 246M313 246L314 247L313 246z"/>
<path style="fill:#a0bac4; stroke:none;" d="M181 247L182 248L181 247M199 247L200 248L199 247M207 247L208 248L207 247M222 247L223 248L222 247M234.667 247.333L235.333 247.667L234.667 247.333M265.667 247.333L266.333 247.667L265.667 247.333z"/>
<path style="fill:#497dae; stroke:none;" d="M267 247L268 248L267 247z"/>
<path style="fill:#a0bac4; stroke:none;" d="M282 247L283 248L282 247z"/>
<path style="fill:#497dae; stroke:none;" d="M295 247L296 248L295 247z"/>
<path style="fill:#a0bac4; stroke:none;" d="M304 247L305 248L304 247z"/>
<path style="fill:#497dae; stroke:none;" d="M319 247L320 248L319 247z"/>
<path style="fill:#a0bac4; stroke:none;" d="M190 248L191 249L190 248M208 248L209 249L208 248M223 248L224 249L223 248M237.667 248.333L238.333 248.667L237.667 248.333M262.667 248.333L263.333 248.667L262.667 248.333z"/>
<path style="fill:#497dae; stroke:none;" d="M264.667 248.333L265.333 248.667L264.667 248.333M279 248L278 250L279 248z"/>
<path style="fill:#a0bac4; stroke:none;" d="M280 248L281 249L280 248z"/>
<path style="fill:#497dae; stroke:none;" d="M294 248L295 249L294 248M303 248L296 256L303 248z"/>
<path style="fill:#a0bac4; stroke:none;" d="M311 248L312 249L311 248M319 248L320 249L319 248M182 249L183 250L182 249M200 249L201 250L200 249M209 249L210 250L209 249M225 249L226 250L225 249M240 249L240 250L256 251L240 249M257 249L257 250L261 250L257 249z"/>
<path style="fill:#497dae; stroke:none;" d="M255 251L255 252L263 250L255 251z"/>
<path style="fill:#a0bac4; stroke:none;" d="M279 249L280 250L279 249z"/>
<path style="fill:#497dae; stroke:none;" d="M293 249L294 250L293 249z"/>
<path style="fill:#a0bac4; stroke:none;" d="M303 249L304 250L303 249z"/>
<path style="fill:#497dae; stroke:none;" d="M311 249L312 250L311 249M318 249L317 251L318 249z"/>
<path style="fill:#a0bac4; stroke:none;" d="M191 250L192 251L191 250M201 250L202 251L201 250M210 250L211 251L210 250M226.667 250.333L227.333 250.667L226.667 250.333z"/>
<path style="fill:#497dae; stroke:none;" d="M245 250L246 251L245 250M276 250L275 252L276 250z"/>
<path style="fill:#a0bac4; stroke:none;" d="M277 250L278 251L277 250z"/>
<path style="fill:#497dae; stroke:none;" d="M292 250L293 251L292 250z"/>
<path style="fill:#a0bac4; stroke:none;" d="M302 250L303 251L302 250M310 250L311 251L310 250M318 250L319 251L318 250M183 251L184 252L183 251M192 251L193 252L192 251M202 251L203 252L202 251M211 251L212 252L211 251M228 251L229 252L228 251M276 251L277 252L276 251z"/>
<path style="fill:#497dae; stroke:none;" d="M291 251L292 252L291 251z"/>
<path style="fill:#a0bac4; stroke:none;" d="M301 251L302 252L301 251M309 251L308 254L309 254L309 251M317 251L318 252L317 251M184.333 252.667L184.667 253.333L184.333 252.667M193.333 252.667L193.667 253.333L193.333 252.667M203 252L204 253L203 252M212 252L213 253L212 252M229.667 252.333L230.333 252.667L229.667 252.333z"/>
<path style="fill:#497dae; stroke:none;" d="M270 253L270 254L274 253L270 253z"/>
<path style="fill:#a0bac4; stroke:none;" d="M274 252L275 253L274 252z"/>
<path style="fill:#497dae; stroke:none;" d="M290 252L291 253L290 252z"/>
<path style="fill:#a0bac4; stroke:none;" d="M300 252L301 253L300 252z"/>
<path style="fill:#497dae; stroke:none;" d="M309 252L310 253L309 252M316 252L315 254L316 252z"/>
<path style="fill:#a0bac4; stroke:none;" d="M204 253L205 254L204 253M213 253L214 254L213 253M231.667 253.333L232.333 253.667L231.667 253.333M272 253L273 254L272 253z"/>
<path style="fill:#497dae; stroke:none;" d="M289 253L290 254L289 253z"/>
<path style="fill:#a0bac4; stroke:none;" d="M299 253L300 254L299 253M316 253L317 254L316 253M185 254L186 255L185 254M194 254L195 255L194 254M205.333 254.667L205.667 255.333L205.333 254.667M214 254L215 255L214 254M234.667 254.333L235.333 254.667L234.667 254.333z"/>
<path style="fill:#497dae; stroke:none;" d="M262 255L262 256L269 255L262 255z"/>
<path style="fill:#a0bac4; stroke:none;" d="M269.667 254.333L270.333 254.667L269.667 254.333M286 254L284 257L286 254z"/>
<path style="fill:#497dae; stroke:none;" d="M287.667 254.333L288.333 254.667L287.667 254.333z"/>
<path style="fill:#a0bac4; stroke:none;" d="M298 254L299 255L298 254M307 254L308 255L307 254M315 254L316 255L315 254M186.333 255.667L186.667 256.333L186.333 255.667M195 255L196 256L195 255M215 255L216 256L215 255M236 255L236 256L239 256L236 255M266.667 255.333L267.333 255.667L266.667 255.333z"/>
<path style="fill:#497dae; stroke:none;" d="M286 255L287 256L286 255z"/>
<path style="fill:#a0bac4; stroke:none;" d="M297 255L298 256L297 255M306 255L293 267L293 268C297.846 265.486 304.672 260.479 306 255z"/>
<path style="fill:#497dae; stroke:none;" d="M314 255L313 257L314 255z"/>
<path style="fill:#a0bac4; stroke:none;" d="M196 256L197 257L196 256M206 256L207 257L206 256M216.667 256.333L217.333 256.667L216.667 256.333M239 256L239 257L244 257L239 256z"/>
<path style="fill:#497dae; stroke:none;" d="M256 256L256 257L261 257L256 256z"/>
<path style="fill:#a0bac4; stroke:none;" d="M261 256L261 257L265 257L261 256z"/>
<path style="fill:#497dae; stroke:none;" d="M285 256L286 257L285 256z"/>
<path style="fill:#a0bac4; stroke:none;" d="M296 256L297 257L296 256z"/>
<path style="fill:#497dae; stroke:none;" d="M306 256L307 257L306 256z"/>
<path style="fill:#a0bac4; stroke:none;" d="M314 256L315 257L314 256M187 257L188 258L187 257M197 257L198 258L197 257M207 257L208 258L207 257M218.667 257.333L219.333 257.667L218.667 257.333M244 257L244 258L259 258L244 257M282 257L281 259L282 257z"/>
<path style="fill:#497dae; stroke:none;" d="M283 257L284 258L283 257z"/>
<path style="fill:#a0bac4; stroke:none;" d="M295 257L296 258L295 257z"/>
<path style="fill:#497dae; stroke:none;" d="M305 257L306 258L305 257z"/>
<path style="fill:#a0bac4; stroke:none;" d="M313 257L314 258L313 257M188 258L189 259L188 258M198 258L199 259L198 258M208.667 258.333L209.333 258.667L208.667 258.333M220 258L221 259L220 258z"/>
<path style="fill:#497dae; stroke:none;" d="M282 258L283 259L282 258M293 258L291 261L293 258z"/>
<path style="fill:#a0bac4; stroke:none;" d="M294 258L295 259L294 258z"/>
<path style="fill:#497dae; stroke:none;" d="M304 258L305 259L304 258M312 258L313 259L312 258z"/>
<path style="fill:#a0bac4; stroke:none;" d="M189 259L190 260L189 259M199 259L200 260L199 259M210 259L211 260L210 259M221.667 259.333L222.333 259.667L221.667 259.333M279 259L280 260L279 259z"/>
<path style="fill:#497dae; stroke:none;" d="M280 259L281 260L280 259z"/>
<path style="fill:#a0bac4; stroke:none;" d="M293 259L294 260L293 259z"/>
<path style="fill:#497dae; stroke:none;" d="M303 259L304 260L303 259M311 259L309 262L311 259z"/>
<path style="fill:#a0bac4; stroke:none;" d="M200 260L200 262L202 262L200 260M211 260L212 261L211 260M223.667 260.333L224.333 260.667L223.667 260.333M277 260L275 261L275 262L277 260z"/>
<path style="fill:#497dae; stroke:none;" d="M278.667 260.333L279.333 260.667L278.667 260.333z"/>
<path style="fill:#a0bac4; stroke:none;" d="M292 260L293 261L292 260z"/>
<path style="fill:#497dae; stroke:none;" d="M302 260L303 261L302 260z"/>
<path style="fill:#a0bac4; stroke:none;" d="M311 260L312 261L311 260M190 261L191 262L190 261M212 261L213 262L212 261M225 261L225 262L228 262L225 261z"/>
<path style="fill:#497dae; stroke:none;" d="M277 261L278 262L277 261M289 261L288 263L289 261z"/>
<path style="fill:#a0bac4; stroke:none;" d="M290 261L291 262L290 261z"/>
<path style="fill:#497dae; stroke:none;" d="M301 261L302 262L301 261z"/>
<path style="fill:#a0bac4; stroke:none;" d="M310 261L311 262L310 261M191 262L192 263L191 262M202 262L203 263L202 262M213.667 262.333L214.333 262.667L213.667 262.333M228 262L228 263L235 265L235 264L228 262M272.667 262.333L273.333 262.667L272.667 262.333z"/>
<path style="fill:#497dae; stroke:none;" d="M274.667 262.333L275.333 262.667L274.667 262.333z"/>
<path style="fill:#a0bac4; stroke:none;" d="M289 262L290 263L289 262z"/>
<path style="fill:#497dae; stroke:none;" d="M300 262L301 263L300 262z"/>
<path style="fill:#a0bac4; stroke:none;" d="M309 262L310 263L309 262M192 263L193 264L192 263M203 263L204 264L203 263M215 263L216 264L215 263M269.667 263.333L270.333 263.667L269.667 263.333z"/>
<path style="fill:#497dae; stroke:none;" d="M271.667 263.333L272.333 263.667L271.667 263.333M286 263L285 265L286 263z"/>
<path style="fill:#a0bac4; stroke:none;" d="M287.667 263.333L288.333 263.667L287.667 263.333z"/>
<path style="fill:#497dae; stroke:none;" d="M299 263L300 264L299 263z"/>
<path style="fill:#a0bac4; stroke:none;" d="M308 263L309 264L308 263M193 264L194 265L193 264M204 264L205 265L204 264M217 264L218 265L217 264M266.667 264.333L267.333 264.667L266.667 264.333z"/>
<path style="fill:#497dae; stroke:none;" d="M265 265L265 266L270 265L265 265z"/>
<path style="fill:#a0bac4; stroke:none;" d="M286 264L287 265L286 264z"/>
<path style="fill:#497dae; stroke:none;" d="M298 264L299 265L298 264M306 264L305 266L306 264z"/>
<path style="fill:#a0bac4; stroke:none;" d="M307 264L308 265L307 264M194 265L195 266L194 265M205 265L206 266L205 265M218 265L219 266L218 265z"/>
<path style="fill:#497dae; stroke:none;" d="M235.667 265.333L236.333 265.667L235.667 265.333z"/>
<path style="fill:#a0bac4; stroke:none;" d="M237 265L237 266L240 266L237 265M262 265L262 266L265 266L262 265z"/>
<path style="fill:#497dae; stroke:none;" d="M283 265L284 266L283 265z"/>
<path style="fill:#a0bac4; stroke:none;" d="M284 265L285 266L284 265z"/>
<path style="fill:#497dae; stroke:none;" d="M297 265L298 266L297 265z"/>
<path style="fill:#a0bac4; stroke:none;" d="M306 265L307 266L306 265M195 266L197 268L197 266L195 266M206.667 266.333L207.333 266.667L206.667 266.333M220 266L221 267L220 266z"/>
<path style="fill:#497dae; stroke:none;" d="M239.667 266.333L240.333 266.667L239.667 266.333z"/>
<path style="fill:#a0bac4; stroke:none;" d="M241 266L241 267L259 267L241 266z"/>
<path style="fill:#497dae; stroke:none;" d="M259 266L259 267L264 267L259 266M281 266L282 267L281 266z"/>
<path style="fill:#a0bac4; stroke:none;" d="M282.667 266.333L283.333 266.667L282.667 266.333z"/>
<path style="fill:#497dae; stroke:none;" d="M296 266L297 267L296 266z"/>
<path style="fill:#a0bac4; stroke:none;" d="M305 266L306 267L305 266M208 267L209 268L208 267M221.667 267.333L222.333 267.667L221.667 267.333z"/>
<path style="fill:#497dae; stroke:none;" d="M249 267L249 268L258 268L249 267M279 267L277 268L277 269L279 267z"/>
<path style="fill:#a0bac4; stroke:none;" d="M280.667 267.333L281.333 267.667L280.667 267.333z"/>
<path style="fill:#497dae; stroke:none;" d="M294 267L295 268L294 267z"/>
<path style="fill:#a0bac4; stroke:none;" d="M304 267L305 268L304 267M197 268L198 269L197 268M209 268L210 269L209 268M223.667 268.333L224.333 268.667L223.667 268.333M279 268L280 269L279 268M291 268L290 270L291 268z"/>
<path style="fill:#497dae; stroke:none;" d="M292.667 268.333L293.333 268.667L292.667 268.333M302 268L299 272L302 268z"/>
<path style="fill:#a0bac4; stroke:none;" d="M303 268L304 269L303 268M199 269L200 270L199 269M211 269L212 270L211 269M225 269L225 270L228 270L225 269z"/>
<path style="fill:#497dae; stroke:none;" d="M271 271L274 271L273 269L271 271M275 269L276 270L275 269z"/>
<path style="fill:#a0bac4; stroke:none;" d="M276.667 269.333L277.333 269.667L276.667 269.333z"/>
<path style="fill:#497dae; stroke:none;" d="M291 269L292 270L291 269z"/>
<path style="fill:#a0bac4; stroke:none;" d="M302 269L303 270L302 269M200 270L201 271L200 270M212.667 270.333L213.333 270.667L212.667 270.333M228.667 270.333L229.333 270.667L228.667 270.333z"/>
<path style="fill:#27d0b5; stroke:none;" d="M261 270L262 271L261 270z"/>
<path style="fill:#a0bac4; stroke:none;" d="M274.667 270.333L275.333 270.667L274.667 270.333M288 270L287 272L288 270z"/>
<path style="fill:#497dae; stroke:none;" d="M289.667 270.333L290.333 270.667L289.667 270.333z"/>
<path style="fill:#a0bac4; stroke:none;" d="M301 270L302 271L301 270M201 271L202 272L201 271M214 271L215 272L214 271M231 271L231 272L234 272L231 271z"/>
<path style="fill:#497dae; stroke:none;" d="M268.667 271.333L269.333 271.667L268.667 271.333z"/>
<path style="fill:#a0bac4; stroke:none;" d="M270.667 271.333L271.333 271.667L270.667 271.333z"/>
<path style="fill:#497dae; stroke:none;" d="M288 271L289 272L288 271z"/>
<path style="fill:#a0bac4; stroke:none;" d="M300 271L301 272L300 271M202 272L203 273L202 272M215.667 272.333L216.333 272.667L215.667 272.333M234 272L234 273L238 273L234 272z"/>
<path style="fill:#497dae; stroke:none;" d="M259 273L259 274L266 273L259 273z"/>
<path style="fill:#a0bac4; stroke:none;" d="M266 272L266 273L269 273L266 272M285 272L286 273L285 272z"/>
<path style="fill:#497dae; stroke:none;" d="M286 272L287 273L286 272M297 272L295 275L297 272z"/>
<path style="fill:#a0bac4; stroke:none;" d="M298 272L299 273L298 272M203.667 273.333L204.333 273.667L203.667 273.333M217.667 273.333L218.333 273.667L217.667 273.333M238 273L238 274L242 274L238 273z"/>
<path style="fill:#497dae; stroke:none;" d="M242 273L243 274L242 273M254 273L255 274L254 273M256 273L257 274L256 273z"/>
<path style="fill:#a0bac4; stroke:none;" d="M262 273L262 274L265 274L262 273M283 273L284 274L283 273z"/>
<path style="fill:#497dae; stroke:none;" d="M284.667 273.333L285.333 273.667L284.667 273.333z"/>
<path style="fill:#a0bac4; stroke:none;" d="M297 273L298 274L297 273M205 274L206 275L205 274M219.667 274.333L220.333 274.667L219.667 274.333M245 274L245 275L259 275L245 274M281 274L282 275L281 274z"/>
<path style="fill:#497dae; stroke:none;" d="M282.667 274.333L283.333 274.667L282.667 274.333z"/>
<path style="fill:#a0bac4; stroke:none;" d="M296 274L297 275L296 274M206 275L207 276L206 275M221.667 275.333L222.333 275.667L221.667 275.333M276 276L276 277L280 276L276 276z"/>
<path style="fill:#497dae; stroke:none;" d="M280.667 275.333L281.333 275.667L280.667 275.333M293 275L289 279L294 276L293 275z"/>
<path style="fill:#a0bac4; stroke:none;" d="M294 275L295 276L294 275M208 276L209 277L208 276M224 276L224 277L227 277L224 276z"/>
<path style="fill:#497dae; stroke:none;" d="M278.667 276.333L279.333 276.667L278.667 276.333z"/>
<path style="fill:#a0bac4; stroke:none;" d="M293 276L294 277L293 276M209.667 277.333L210.333 277.667L209.667 277.333M227.667 277.333L228.333 277.667L227.667 277.333M273.667 277.333L274.333 277.667L273.667 277.333z"/>
<path style="fill:#497dae; stroke:none;" d="M275.667 277.333L276.333 277.667L275.667 277.333z"/>
<path style="fill:#a0bac4; stroke:none;" d="M291 277L292 278L291 277M211 278L212 279L211 278M230 278L230 279L233 279L230 278M270.667 278.333L271.333 278.667L270.667 278.333z"/>
<path style="fill:#497dae; stroke:none;" d="M272 278L273 279L272 278z"/>
<path style="fill:#a0bac4; stroke:none;" d="M290 278L291 279L290 278M212.667 279.333L213.333 279.667L212.667 279.333z"/>
<path style="fill:#497dae; stroke:none;" d="M233 279L234 280L233 279z"/>
<path style="fill:#a0bac4; stroke:none;" d="M234 279L234 280L238 280L234 279M265 279L265 280L268 280L265 279z"/>
<path style="fill:#497dae; stroke:none;" d="M268 279L268 280L271 280L268 279M287 279L286 281L287 279z"/>
<path style="fill:#a0bac4; stroke:none;" d="M288 279L289 280L288 279M214 280L215 281L214 280z"/>
<path style="fill:#497dae; stroke:none;" d="M215 280L216 281L215 280M237.667 280.333L238.333 280.667L237.667 280.333z"/>
<path style="fill:#a0bac4; stroke:none;" d="M239 280L239 281L244 281L239 280M259 280L259 281L263 281L259 280z"/>
<path style="fill:#497dae; stroke:none;" d="M263 280L263 281L267 281L263 280M283 280L283 282L285 282L283 280z"/>
<path style="fill:#a0bac4; stroke:none;" d="M287 280L288 281L287 280M216 281L216 282L223 284L223 283L216 281z"/>
<path style="fill:#497dae; stroke:none;" d="M217 281L218 282L217 281M242 281L242 282L247 282L242 281z"/>
<path style="fill:#a0bac4; stroke:none;" d="M247 281L247 282L252 282L247 281z"/>
<path style="fill:#497dae; stroke:none;" d="M252 281L252 282L263 282L252 281z"/>
<path style="fill:#a0bac4; stroke:none;" d="M285 281L286 282L285 281z"/>
<path style="fill:#497dae; stroke:none;" d="M220 282L221 283L220 282M277 283L277 284L282 283L277 283z"/>
<path style="fill:#a0bac4; stroke:none;" d="M282.667 282.333L283.333 282.667L282.667 282.333M280 283L281 284L280 283M223 284L223 285L226 285L223 284z"/>
<path style="fill:#497dae; stroke:none;" d="M270 285L270 286L276 285L270 285z"/>
<path style="fill:#a0bac4; stroke:none;" d="M276.667 284.333L277.333 284.667L276.667 284.333M226 285L226 286L229 286L226 285M273.667 285.333L274.333 285.667L273.667 285.333M229 286L229 287L233 287L229 286z"/>
<path style="fill:#497dae; stroke:none;" d="M256 287L256 288L269 287L256 287z"/>
<path style="fill:#a0bac4; stroke:none;" d="M269.667 286.333L270.333 286.667L269.667 286.333M234 287L234 288L238 288L234 287M264 287L264 288L267 288L264 287M239 288L239 289L262 289L239 288z"/>
</svg>
